G04 PROTEUS RS274X GERBER FILE*
%FSLAX45Y45*%
%MOMM*%
G01*
%AMPPAD008*
4,1,36,
-1.016000,1.143000,
1.016000,1.143000,
1.041970,1.140470,
1.065980,1.133200,
1.087580,1.121650,
1.106290,1.106290,
1.121650,1.087570,
1.133200,1.065980,
1.140470,1.041970,
1.143000,1.016000,
1.143000,-1.016000,
1.140470,-1.041970,
1.133200,-1.065980,
1.121650,-1.087570,
1.106290,-1.106290,
1.087580,-1.121650,
1.065980,-1.133200,
1.041970,-1.140470,
1.016000,-1.143000,
-1.016000,-1.143000,
-1.041970,-1.140470,
-1.065980,-1.133200,
-1.087580,-1.121650,
-1.106290,-1.106290,
-1.121650,-1.087570,
-1.133200,-1.065980,
-1.140470,-1.041970,
-1.143000,-1.016000,
-1.143000,1.016000,
-1.140470,1.041970,
-1.133200,1.065980,
-1.121650,1.087570,
-1.106290,1.106290,
-1.087580,1.121650,
-1.065980,1.133200,
-1.041970,1.140470,
-1.016000,1.143000,
0*%
%ADD18PPAD008*%
%AMPPAD009*
4,1,8,
0.509800,-1.397000,
-0.509800,-1.397000,
-0.889000,-1.017800,
-0.889000,1.017800,
-0.509800,1.397000,
0.509800,1.397000,
0.889000,1.017800,
0.889000,-1.017800,
0.509800,-1.397000,
0*%
%ADD19PPAD009*%
%AMPPAD010*
4,1,8,
-1.397000,-0.509800,
-1.397000,0.509800,
-1.017800,0.889000,
1.017800,0.889000,
1.397000,0.509800,
1.397000,-0.509800,
1.017800,-0.889000,
-1.017800,-0.889000,
-1.397000,-0.509800,
0*%
%ADD70PPAD010*%
%AMPPAD011*
4,1,36,
-2.127000,-1.195200,
-2.127000,1.195200,
-2.118410,1.283490,
-2.093690,1.365130,
-2.054420,1.438560,
-2.002180,1.502180,
-1.938560,1.554420,
-1.865130,1.593690,
-1.783490,1.618410,
-1.695200,1.627000,
1.695200,1.627000,
1.783490,1.618410,
1.865130,1.593690,
1.938560,1.554420,
2.002180,1.502180,
2.054420,1.438560,
2.093690,1.365130,
2.118410,1.283490,
2.127000,1.195200,
2.127000,-1.195200,
2.118410,-1.283490,
2.093690,-1.365130,
2.054420,-1.438560,
2.002180,-1.502180,
1.938560,-1.554420,
1.865130,-1.593690,
1.783490,-1.618410,
1.695200,-1.627000,
-1.695200,-1.627000,
-1.783490,-1.618410,
-1.865130,-1.593690,
-1.938560,-1.554420,
-2.002180,-1.502180,
-2.054420,-1.438560,
-2.093690,-1.365130,
-2.118410,-1.283490,
-2.127000,-1.195200,
0*%
%ADD71PPAD011*%
%ADD20C,4.508000*%
%ADD16C,0.203200*%
D18*
X-2750000Y-1750000D03*
X-2500000Y-1750000D03*
X-2250000Y-1750000D03*
X-2000000Y-1750000D03*
X-1750000Y-1750000D03*
X-1500000Y-1750000D03*
X-1250000Y-1750000D03*
X-1000000Y-1750000D03*
X-750000Y-1750000D03*
X-500000Y-1750000D03*
X-250000Y-1750000D03*
X+0Y-1750000D03*
X+250000Y-1750000D03*
X+500000Y-1750000D03*
X+500000Y-3750000D03*
X+250000Y-3750000D03*
X+0Y-3750000D03*
X-250000Y-3750000D03*
X-500000Y-3750000D03*
X-750000Y-3750000D03*
X-1000000Y-3750000D03*
X-1250000Y-3750000D03*
X-1500000Y-3750000D03*
X-1750000Y-3750000D03*
X-2000000Y-3750000D03*
X-2250000Y-3750000D03*
X-2500000Y-3750000D03*
X-2750000Y-3750000D03*
D19*
X-2250000Y-250000D03*
X-2500000Y-250000D03*
X-2750000Y-250000D03*
X-3000000Y-250000D03*
X+500000Y-500000D03*
X+250000Y-500000D03*
X+0Y-500000D03*
X-250000Y-500000D03*
X-9500000Y-4000000D03*
X-9250000Y-4000000D03*
X-8992000Y-4000000D03*
X-8750000Y-4000000D03*
X-9500000Y-2988000D03*
X-9246000Y-2988000D03*
X-9000000Y-3000000D03*
X-8750000Y-3000000D03*
X-7750000Y-500000D03*
X-7496000Y-500000D03*
X-7242000Y-500000D03*
X-6988000Y-500000D03*
X-6734000Y-500000D03*
X-6480000Y-500000D03*
X-6250000Y-500000D03*
X-8000000Y-500000D03*
X-500000Y-5500000D03*
X-750000Y-5500000D03*
X-1000000Y-5500000D03*
X-1250000Y-5500000D03*
X-1500000Y-5500000D03*
D70*
X+2500000Y-3250000D03*
X+2500000Y-3000000D03*
X+2500000Y-2750000D03*
X+2500000Y-2500000D03*
D71*
X+4500000Y-2500000D03*
X+5000000Y-2500000D03*
X+4500000Y-1500000D03*
X+4500000Y-2000000D03*
X+5000000Y-1500000D03*
X+5000000Y-2000000D03*
D19*
X+4500000Y-3250000D03*
X+5000000Y-3250000D03*
D70*
X+4250000Y-1000000D03*
X+5250000Y-1000000D03*
D20*
X-11000000Y-6250000D03*
X+5750000Y-6250000D03*
X-11000000Y+250000D03*
X+5750000Y+250000D03*
D70*
X+3750000Y-2000000D03*
X+5750000Y-2000000D03*
D16*
X-11250000Y-6500000D02*
X+6000000Y-6500000D01*
X+6000000Y+500000D01*
X-11250000Y+500000D01*
X-11250000Y-6500000D01*
M02*
