G04 PROTEUS RS274X GERBER FILE*
%FSLAX45Y45*%
%MOMM*%
G01*
%ADD10C,0.635000*%
%ADD17C,0.254000*%
%ADD11R,2.032000X2.032000*%
%AMDIL002*
4,1,8,
-0.762000,0.965200,-0.457200,1.270000,0.457200,1.270000,0.762000,0.965200,0.762000,-0.965200,
0.457200,-1.270000,-0.457200,-1.270000,-0.762000,-0.965200,-0.762000,0.965200,
0*%
%ADD12DIL002*%
%AMDIL003*
4,1,8,
-1.270000,0.457200,-0.965200,0.762000,0.965200,0.762000,1.270000,0.457200,1.270000,-0.457200,
0.965200,-0.762000,-0.965200,-0.762000,-1.270000,-0.457200,-1.270000,0.457200,
0*%
%ADD13DIL003*%
%AMPPAD004*
4,1,36,
-2.000000,-1.195200,
-2.000000,1.195200,
-1.993940,1.257520,
-1.976490,1.315160,
-1.948770,1.366980,
-1.911890,1.411890,
-1.866980,1.448760,
-1.815160,1.476480,
-1.757520,1.493930,
-1.695200,1.500000,
1.695200,1.500000,
1.757520,1.493930,
1.815160,1.476480,
1.866980,1.448760,
1.911890,1.411890,
1.948770,1.366980,
1.976490,1.315160,
1.993940,1.257520,
2.000000,1.195200,
2.000000,-1.195200,
1.993940,-1.257520,
1.976490,-1.315160,
1.948770,-1.366980,
1.911890,-1.411890,
1.866980,-1.448760,
1.815160,-1.476480,
1.757520,-1.493930,
1.695200,-1.500000,
-1.695200,-1.500000,
-1.757520,-1.493930,
-1.815160,-1.476480,
-1.866980,-1.448760,
-1.911890,-1.411890,
-1.948770,-1.366980,
-1.976490,-1.315160,
-1.993940,-1.257520,
-2.000000,-1.195200,
0*%
%ADD14PPAD004*%
%ADD15C,4.000000*%
%ADD16C,0.203200*%
D10*
X-2000000Y-1750000D02*
X-2000000Y-1250000D01*
D17*
X+2500000Y-2750000D02*
X+2000000Y-2750000D01*
D10*
X+4500000Y-1500000D02*
X+4355950Y-1500000D01*
X+4250000Y-1394050D01*
X+4250000Y-1000000D01*
X+5000000Y-2500000D02*
X+5000000Y-3250000D01*
X+4500000Y-2500000D02*
X+4500000Y-3250000D01*
X+5000000Y-1500000D02*
X+5144050Y-1500000D01*
X+5250000Y-1394050D01*
X+5250000Y-1000000D01*
X+250000Y-500000D02*
X+250000Y-1000000D01*
X-2000000Y-1000000D02*
X-3000000Y-1000000D01*
X+250000Y-1000000D02*
X-2000000Y-1000000D01*
X-2000000Y-1250000D01*
X-1250000Y-1750000D02*
X-1250000Y-1577375D01*
X-1172625Y-1500000D01*
X+1496000Y-1500000D01*
X+1750000Y-1754000D01*
X+1750000Y-2746000D01*
X+2004000Y-3000000D01*
X+2500000Y-3000000D01*
X+250000Y-1000000D02*
X+1746000Y-1000000D01*
X+2000000Y-1254000D01*
X+2000000Y-2750000D01*
X+500000Y-500000D02*
X+2746000Y-500000D01*
X+3000000Y-754000D01*
X+3000000Y-2250000D01*
X+2750000Y-2500000D01*
X+2500000Y-2500000D01*
X+2000000Y-2750000D02*
X+2746000Y-2750000D01*
X+3000000Y-3004000D01*
X+3000000Y-5246000D01*
X+2746000Y-5500000D01*
X-500000Y-5500000D01*
X-1500000Y-1750000D02*
X-1500000Y-2996000D01*
X-1246000Y-3250000D01*
X+2500000Y-3250000D01*
X-1250000Y-5500000D02*
X-1250000Y-5250000D01*
X-1000000Y-5000000D01*
X+264304Y-5000000D01*
X+518304Y-4746000D01*
X+518304Y-3768304D01*
X+500000Y-3750000D01*
X-9246000Y-2988000D02*
X-9246000Y-2463873D01*
X-9250000Y-2000000D01*
X-9250000Y-504000D01*
X-8996000Y-250000D01*
X-7371000Y-250000D01*
X-7250000Y-371000D01*
X-7250000Y-492000D01*
X-7242000Y-500000D01*
X-6988000Y-500000D02*
X-6988000Y-2746000D01*
X-7242000Y-3000000D01*
X-8750000Y-3000000D01*
X-1000000Y-5500000D02*
X-1000000Y-5750000D01*
X-1250000Y-6000000D01*
X-2246000Y-6000000D01*
X-2500000Y-5746000D01*
X-2500000Y-3750000D01*
X-7496000Y-500000D02*
X-7496000Y-2246000D01*
X-7750000Y-2500000D01*
X-8750000Y-2500000D01*
X-9000000Y-2750000D01*
X-9000000Y-3000000D01*
X-3000000Y-1000000D02*
X-3000000Y-250000D01*
X-250000Y-500000D02*
X-250000Y-311500D01*
X-311500Y-250000D01*
X-2250000Y-250000D01*
X-6000000Y-3750000D02*
X-6000000Y-5996000D01*
X-5746000Y-6250000D01*
X-1004000Y-6250000D01*
X-750000Y-5996000D01*
X-750000Y-5500000D01*
X-6734000Y-500000D02*
X-6726000Y-750000D01*
X-6467873Y-1000000D01*
X-3000000Y-1000000D01*
X-2250000Y-1750000D02*
X-2250000Y-1587008D01*
X-2412991Y-1424017D01*
X-5746000Y-1424017D01*
X-6000000Y-1678017D01*
X-6000000Y-3750000D01*
X+4500000Y-2000000D02*
X+3750000Y-2000000D01*
X+5000000Y-2000000D02*
X+5750000Y-2000000D01*
X-6250000Y-500000D02*
X-6250000Y-4000D01*
X-5996000Y+250000D01*
X+246000Y+250000D01*
X+500000Y-4000D01*
X+500000Y-500000D01*
X+0Y-500000D02*
X+0Y-688500D01*
X-61500Y-750000D01*
X-2250000Y-750000D01*
X-2500000Y-500000D01*
X-2500000Y-250000D01*
X-6000000Y-3750000D02*
X-6000000Y-4000000D01*
X-8750000Y-4000000D01*
X-8992000Y-4000000D02*
X-8992000Y-4488000D01*
X-9246000Y-4742000D01*
X-9988000Y-4742000D01*
X-10242000Y-4488000D01*
X-10242000Y-254000D01*
X-9988000Y+0D01*
X-6992000Y+0D01*
X-6750000Y-242000D01*
X-6750000Y-484000D01*
X-6734000Y-500000D01*
D11*
X-2750000Y-1750000D03*
X-2500000Y-1750000D03*
X-2250000Y-1750000D03*
X-2000000Y-1750000D03*
X-1750000Y-1750000D03*
X-1500000Y-1750000D03*
X-1250000Y-1750000D03*
X-1000000Y-1750000D03*
X-750000Y-1750000D03*
X-500000Y-1750000D03*
X-250000Y-1750000D03*
X+0Y-1750000D03*
X+250000Y-1750000D03*
X+500000Y-1750000D03*
X+500000Y-3750000D03*
X+250000Y-3750000D03*
X+0Y-3750000D03*
X-250000Y-3750000D03*
X-500000Y-3750000D03*
X-750000Y-3750000D03*
X-1000000Y-3750000D03*
X-1250000Y-3750000D03*
X-1500000Y-3750000D03*
X-1750000Y-3750000D03*
X-2000000Y-3750000D03*
X-2250000Y-3750000D03*
X-2500000Y-3750000D03*
X-2750000Y-3750000D03*
D12*
X-2250000Y-250000D03*
X-2500000Y-250000D03*
X-2750000Y-250000D03*
X-3000000Y-250000D03*
X+500000Y-500000D03*
X+250000Y-500000D03*
X+0Y-500000D03*
X-250000Y-500000D03*
X-9500000Y-4000000D03*
X-9250000Y-4000000D03*
X-8992000Y-4000000D03*
X-8750000Y-4000000D03*
X-9500000Y-2988000D03*
X-9246000Y-2988000D03*
X-9000000Y-3000000D03*
X-8750000Y-3000000D03*
X-7750000Y-500000D03*
X-7496000Y-500000D03*
X-7242000Y-500000D03*
X-6988000Y-500000D03*
X-6734000Y-500000D03*
X-6480000Y-500000D03*
X-6250000Y-500000D03*
X-8000000Y-500000D03*
X-500000Y-5500000D03*
X-750000Y-5500000D03*
X-1000000Y-5500000D03*
X-1250000Y-5500000D03*
X-1500000Y-5500000D03*
D13*
X+2500000Y-3250000D03*
X+2500000Y-3000000D03*
X+2500000Y-2750000D03*
X+2500000Y-2500000D03*
D14*
X+4500000Y-2500000D03*
X+5000000Y-2500000D03*
X+4500000Y-1500000D03*
X+4500000Y-2000000D03*
X+5000000Y-1500000D03*
X+5000000Y-2000000D03*
D12*
X+4500000Y-3250000D03*
X+5000000Y-3250000D03*
D13*
X+4250000Y-1000000D03*
X+5250000Y-1000000D03*
D15*
X-11000000Y-6250000D03*
X+5750000Y-6250000D03*
X-11000000Y+250000D03*
X+5750000Y+250000D03*
D13*
X+3750000Y-2000000D03*
X+5750000Y-2000000D03*
D16*
X-11250000Y-6500000D02*
X+6000000Y-6500000D01*
X+6000000Y+500000D01*
X-11250000Y+500000D01*
X-11250000Y-6500000D01*
M02*
