G04 PROTEUS RS274X GERBER FILE*
%FSLAX45Y45*%
%MOMM*%
G01*
%ADD16C,0.203200*%
%ADD21C,0.127000*%
%ADD22C,0.063500*%
D16*
X-2750000Y-1686500D02*
X-2750000Y-1813500D01*
X-2813500Y-1750000D02*
X-2686500Y-1750000D01*
X-2500000Y-1686500D02*
X-2500000Y-1813500D01*
X-2563500Y-1750000D02*
X-2436500Y-1750000D01*
X-2250000Y-1686500D02*
X-2250000Y-1813500D01*
X-2313500Y-1750000D02*
X-2186500Y-1750000D01*
X-2000000Y-1686500D02*
X-2000000Y-1813500D01*
X-2063500Y-1750000D02*
X-1936500Y-1750000D01*
X-1750000Y-1686500D02*
X-1750000Y-1813500D01*
X-1813500Y-1750000D02*
X-1686500Y-1750000D01*
X-1500000Y-1686500D02*
X-1500000Y-1813500D01*
X-1563500Y-1750000D02*
X-1436500Y-1750000D01*
X-1250000Y-1686500D02*
X-1250000Y-1813500D01*
X-1313500Y-1750000D02*
X-1186500Y-1750000D01*
X-1000000Y-1686500D02*
X-1000000Y-1813500D01*
X-1063500Y-1750000D02*
X-936500Y-1750000D01*
X-750000Y-1686500D02*
X-750000Y-1813500D01*
X-813500Y-1750000D02*
X-686500Y-1750000D01*
X-500000Y-1686500D02*
X-500000Y-1813500D01*
X-563500Y-1750000D02*
X-436500Y-1750000D01*
X-250000Y-1686500D02*
X-250000Y-1813500D01*
X-313500Y-1750000D02*
X-186500Y-1750000D01*
X+0Y-1686500D02*
X+0Y-1813500D01*
X-63500Y-1750000D02*
X+63500Y-1750000D01*
X+250000Y-1686500D02*
X+250000Y-1813500D01*
X+186500Y-1750000D02*
X+313500Y-1750000D01*
X+500000Y-1686500D02*
X+500000Y-1813500D01*
X+436500Y-1750000D02*
X+563500Y-1750000D01*
X+500000Y-3686500D02*
X+500000Y-3813500D01*
X+436500Y-3750000D02*
X+563500Y-3750000D01*
X+250000Y-3686500D02*
X+250000Y-3813500D01*
X+186500Y-3750000D02*
X+313500Y-3750000D01*
X+0Y-3686500D02*
X+0Y-3813500D01*
X-63500Y-3750000D02*
X+63500Y-3750000D01*
X-250000Y-3686500D02*
X-250000Y-3813500D01*
X-313500Y-3750000D02*
X-186500Y-3750000D01*
X-500000Y-3686500D02*
X-500000Y-3813500D01*
X-563500Y-3750000D02*
X-436500Y-3750000D01*
X-750000Y-3686500D02*
X-750000Y-3813500D01*
X-813500Y-3750000D02*
X-686500Y-3750000D01*
X-1000000Y-3686500D02*
X-1000000Y-3813500D01*
X-1063500Y-3750000D02*
X-936500Y-3750000D01*
X-1250000Y-3686500D02*
X-1250000Y-3813500D01*
X-1313500Y-3750000D02*
X-1186500Y-3750000D01*
X-1500000Y-3686500D02*
X-1500000Y-3813500D01*
X-1563500Y-3750000D02*
X-1436500Y-3750000D01*
X-1750000Y-3686500D02*
X-1750000Y-3813500D01*
X-1813500Y-3750000D02*
X-1686500Y-3750000D01*
X-2000000Y-3686500D02*
X-2000000Y-3813500D01*
X-2063500Y-3750000D02*
X-1936500Y-3750000D01*
X-2250000Y-3686500D02*
X-2250000Y-3813500D01*
X-2313500Y-3750000D02*
X-2186500Y-3750000D01*
X-2500000Y-3686500D02*
X-2500000Y-3813500D01*
X-2563500Y-3750000D02*
X-2436500Y-3750000D01*
X-2750000Y-3686500D02*
X-2750000Y-3813500D01*
X-2813500Y-3750000D02*
X-2686500Y-3750000D01*
X-2294901Y-205099D02*
X-2205099Y-294901D01*
X-2294901Y-294901D02*
X-2205099Y-205099D01*
X-2544901Y-205099D02*
X-2455099Y-294901D01*
X-2544901Y-294901D02*
X-2455099Y-205099D01*
X-2794901Y-205099D02*
X-2705099Y-294901D01*
X-2794901Y-294901D02*
X-2705099Y-205099D01*
X-3044901Y-205099D02*
X-2955099Y-294901D01*
X-3044901Y-294901D02*
X-2955099Y-205099D01*
X+455099Y-455099D02*
X+544901Y-544901D01*
X+455099Y-544901D02*
X+544901Y-455099D01*
X+205099Y-455099D02*
X+294901Y-544901D01*
X+205099Y-544901D02*
X+294901Y-455099D01*
X-44901Y-455099D02*
X+44901Y-544901D01*
X-44901Y-544901D02*
X+44901Y-455099D01*
X-294901Y-455099D02*
X-205099Y-544901D01*
X-294901Y-544901D02*
X-205099Y-455099D01*
X-9544901Y-3955099D02*
X-9455099Y-4044901D01*
X-9544901Y-4044901D02*
X-9455099Y-3955099D01*
X-9294901Y-3955099D02*
X-9205099Y-4044901D01*
X-9294901Y-4044901D02*
X-9205099Y-3955099D01*
X-9036901Y-3955099D02*
X-8947099Y-4044901D01*
X-9036901Y-4044901D02*
X-8947099Y-3955099D01*
X-8794901Y-3955099D02*
X-8705099Y-4044901D01*
X-8794901Y-4044901D02*
X-8705099Y-3955099D01*
X-9544901Y-2943099D02*
X-9455099Y-3032901D01*
X-9544901Y-3032901D02*
X-9455099Y-2943099D01*
X-9290901Y-2943099D02*
X-9201099Y-3032901D01*
X-9290901Y-3032901D02*
X-9201099Y-2943099D01*
X-9044901Y-2955099D02*
X-8955099Y-3044901D01*
X-9044901Y-3044901D02*
X-8955099Y-2955099D01*
X-8794901Y-2955099D02*
X-8705099Y-3044901D01*
X-8794901Y-3044901D02*
X-8705099Y-2955099D01*
X-7794901Y-455099D02*
X-7705099Y-544901D01*
X-7794901Y-544901D02*
X-7705099Y-455099D01*
X-7540901Y-455099D02*
X-7451099Y-544901D01*
X-7540901Y-544901D02*
X-7451099Y-455099D01*
X-7286901Y-455099D02*
X-7197099Y-544901D01*
X-7286901Y-544901D02*
X-7197099Y-455099D01*
X-7032901Y-455099D02*
X-6943099Y-544901D01*
X-7032901Y-544901D02*
X-6943099Y-455099D01*
X-6778901Y-455099D02*
X-6689099Y-544901D01*
X-6778901Y-544901D02*
X-6689099Y-455099D01*
X-6524901Y-455099D02*
X-6435099Y-544901D01*
X-6524901Y-544901D02*
X-6435099Y-455099D01*
X-6294901Y-455099D02*
X-6205099Y-544901D01*
X-6294901Y-544901D02*
X-6205099Y-455099D01*
X-8044901Y-455099D02*
X-7955099Y-544901D01*
X-8044901Y-544901D02*
X-7955099Y-455099D01*
X-544901Y-5455099D02*
X-455099Y-5544901D01*
X-544901Y-5544901D02*
X-455099Y-5455099D01*
X-794901Y-5455099D02*
X-705099Y-5544901D01*
X-794901Y-5544901D02*
X-705099Y-5455099D01*
X-1044901Y-5455099D02*
X-955099Y-5544901D01*
X-1044901Y-5544901D02*
X-955099Y-5455099D01*
X-1294901Y-5455099D02*
X-1205099Y-5544901D01*
X-1294901Y-5544901D02*
X-1205099Y-5455099D01*
X-1544901Y-5455099D02*
X-1455099Y-5544901D01*
X-1544901Y-5544901D02*
X-1455099Y-5455099D01*
X+2455099Y-3205099D02*
X+2544901Y-3294901D01*
X+2455099Y-3294901D02*
X+2544901Y-3205099D01*
X+2455099Y-2955099D02*
X+2544901Y-3044901D01*
X+2455099Y-3044901D02*
X+2544901Y-2955099D01*
X+2455099Y-2705099D02*
X+2544901Y-2794901D01*
X+2455099Y-2794901D02*
X+2544901Y-2705099D01*
X+2455099Y-2455099D02*
X+2544901Y-2544901D01*
X+2455099Y-2544901D02*
X+2544901Y-2455099D01*
X+4500000Y-2436500D02*
X+4500000Y-2563500D01*
X+4436500Y-2500000D02*
X+4563500Y-2500000D01*
X+4455099Y-2455099D02*
X+4544901Y-2544901D01*
X+4455099Y-2544901D02*
X+4544901Y-2455099D01*
X+5000000Y-2436500D02*
X+5000000Y-2563500D01*
X+4936500Y-2500000D02*
X+5063500Y-2500000D01*
X+4955099Y-2455099D02*
X+5044901Y-2544901D01*
X+4955099Y-2544901D02*
X+5044901Y-2455099D01*
X+4500000Y-1436500D02*
X+4500000Y-1563500D01*
X+4436500Y-1500000D02*
X+4563500Y-1500000D01*
X+4455099Y-1455099D02*
X+4544901Y-1544901D01*
X+4455099Y-1544901D02*
X+4544901Y-1455099D01*
X+4500000Y-1936500D02*
X+4500000Y-2063500D01*
X+4436500Y-2000000D02*
X+4563500Y-2000000D01*
X+4455099Y-1955099D02*
X+4544901Y-2044901D01*
X+4455099Y-2044901D02*
X+4544901Y-1955099D01*
X+5000000Y-1436500D02*
X+5000000Y-1563500D01*
X+4936500Y-1500000D02*
X+5063500Y-1500000D01*
X+4955099Y-1455099D02*
X+5044901Y-1544901D01*
X+4955099Y-1544901D02*
X+5044901Y-1455099D01*
X+5000000Y-1936500D02*
X+5000000Y-2063500D01*
X+4936500Y-2000000D02*
X+5063500Y-2000000D01*
X+4955099Y-1955099D02*
X+5044901Y-2044901D01*
X+4955099Y-2044901D02*
X+5044901Y-1955099D01*
X+4455099Y-3205099D02*
X+4544901Y-3294901D01*
X+4455099Y-3294901D02*
X+4544901Y-3205099D01*
X+4955099Y-3205099D02*
X+5044901Y-3294901D01*
X+4955099Y-3294901D02*
X+5044901Y-3205099D01*
X+4205099Y-955099D02*
X+4294901Y-1044901D01*
X+4205099Y-1044901D02*
X+4294901Y-955099D01*
X+5205099Y-955099D02*
X+5294901Y-1044901D01*
X+5205099Y-1044901D02*
X+5294901Y-955099D01*
X-10936500Y-6250000D02*
X-10936717Y-6244753D01*
X-10938482Y-6234258D01*
X-10942174Y-6223763D01*
X-10948202Y-6213268D01*
X-10957424Y-6202888D01*
X-10967919Y-6195200D01*
X-10978414Y-6190282D01*
X-10988909Y-6187476D01*
X-10999404Y-6186503D01*
X-11000000Y-6186500D01*
X-11063500Y-6250000D02*
X-11063283Y-6244753D01*
X-11061518Y-6234258D01*
X-11057826Y-6223763D01*
X-11051798Y-6213268D01*
X-11042576Y-6202888D01*
X-11032081Y-6195200D01*
X-11021586Y-6190282D01*
X-11011091Y-6187476D01*
X-11000596Y-6186503D01*
X-11000000Y-6186500D01*
X-11063500Y-6250000D02*
X-11063283Y-6255247D01*
X-11061518Y-6265742D01*
X-11057826Y-6276237D01*
X-11051798Y-6286732D01*
X-11042576Y-6297112D01*
X-11032081Y-6304800D01*
X-11021586Y-6309718D01*
X-11011091Y-6312524D01*
X-11000596Y-6313497D01*
X-11000000Y-6313500D01*
X-10936500Y-6250000D02*
X-10936717Y-6255247D01*
X-10938482Y-6265742D01*
X-10942174Y-6276237D01*
X-10948202Y-6286732D01*
X-10957424Y-6297112D01*
X-10967919Y-6304800D01*
X-10978414Y-6309718D01*
X-10988909Y-6312524D01*
X-10999404Y-6313497D01*
X-11000000Y-6313500D01*
X-11000000Y-6186500D02*
X-11000000Y-6313500D01*
X-11063500Y-6250000D02*
X-10936500Y-6250000D01*
X+5813500Y-6250000D02*
X+5813283Y-6244753D01*
X+5811518Y-6234258D01*
X+5807826Y-6223763D01*
X+5801798Y-6213268D01*
X+5792576Y-6202888D01*
X+5782081Y-6195200D01*
X+5771586Y-6190282D01*
X+5761091Y-6187476D01*
X+5750596Y-6186503D01*
X+5750000Y-6186500D01*
X+5686500Y-6250000D02*
X+5686717Y-6244753D01*
X+5688482Y-6234258D01*
X+5692174Y-6223763D01*
X+5698202Y-6213268D01*
X+5707424Y-6202888D01*
X+5717919Y-6195200D01*
X+5728414Y-6190282D01*
X+5738909Y-6187476D01*
X+5749404Y-6186503D01*
X+5750000Y-6186500D01*
X+5686500Y-6250000D02*
X+5686717Y-6255247D01*
X+5688482Y-6265742D01*
X+5692174Y-6276237D01*
X+5698202Y-6286732D01*
X+5707424Y-6297112D01*
X+5717919Y-6304800D01*
X+5728414Y-6309718D01*
X+5738909Y-6312524D01*
X+5749404Y-6313497D01*
X+5750000Y-6313500D01*
X+5813500Y-6250000D02*
X+5813283Y-6255247D01*
X+5811518Y-6265742D01*
X+5807826Y-6276237D01*
X+5801798Y-6286732D01*
X+5792576Y-6297112D01*
X+5782081Y-6304800D01*
X+5771586Y-6309718D01*
X+5761091Y-6312524D01*
X+5750596Y-6313497D01*
X+5750000Y-6313500D01*
X+5750000Y-6186500D02*
X+5750000Y-6313500D01*
X+5686500Y-6250000D02*
X+5813500Y-6250000D01*
X-10936500Y+250000D02*
X-10936717Y+255247D01*
X-10938482Y+265742D01*
X-10942174Y+276237D01*
X-10948202Y+286732D01*
X-10957424Y+297112D01*
X-10967919Y+304800D01*
X-10978414Y+309718D01*
X-10988909Y+312524D01*
X-10999404Y+313497D01*
X-11000000Y+313500D01*
X-11063500Y+250000D02*
X-11063283Y+255247D01*
X-11061518Y+265742D01*
X-11057826Y+276237D01*
X-11051798Y+286732D01*
X-11042576Y+297112D01*
X-11032081Y+304800D01*
X-11021586Y+309718D01*
X-11011091Y+312524D01*
X-11000596Y+313497D01*
X-11000000Y+313500D01*
X-11063500Y+250000D02*
X-11063283Y+244753D01*
X-11061518Y+234258D01*
X-11057826Y+223763D01*
X-11051798Y+213268D01*
X-11042576Y+202888D01*
X-11032081Y+195200D01*
X-11021586Y+190282D01*
X-11011091Y+187476D01*
X-11000596Y+186503D01*
X-11000000Y+186500D01*
X-10936500Y+250000D02*
X-10936717Y+244753D01*
X-10938482Y+234258D01*
X-10942174Y+223763D01*
X-10948202Y+213268D01*
X-10957424Y+202888D01*
X-10967919Y+195200D01*
X-10978414Y+190282D01*
X-10988909Y+187476D01*
X-10999404Y+186503D01*
X-11000000Y+186500D01*
X-11000000Y+313500D02*
X-11000000Y+186500D01*
X-11063500Y+250000D02*
X-10936500Y+250000D01*
X+5813500Y+250000D02*
X+5813283Y+255247D01*
X+5811518Y+265742D01*
X+5807826Y+276237D01*
X+5801798Y+286732D01*
X+5792576Y+297112D01*
X+5782081Y+304800D01*
X+5771586Y+309718D01*
X+5761091Y+312524D01*
X+5750596Y+313497D01*
X+5750000Y+313500D01*
X+5686500Y+250000D02*
X+5686717Y+255247D01*
X+5688482Y+265742D01*
X+5692174Y+276237D01*
X+5698202Y+286732D01*
X+5707424Y+297112D01*
X+5717919Y+304800D01*
X+5728414Y+309718D01*
X+5738909Y+312524D01*
X+5749404Y+313497D01*
X+5750000Y+313500D01*
X+5686500Y+250000D02*
X+5686717Y+244753D01*
X+5688482Y+234258D01*
X+5692174Y+223763D01*
X+5698202Y+213268D01*
X+5707424Y+202888D01*
X+5717919Y+195200D01*
X+5728414Y+190282D01*
X+5738909Y+187476D01*
X+5749404Y+186503D01*
X+5750000Y+186500D01*
X+5813500Y+250000D02*
X+5813283Y+244753D01*
X+5811518Y+234258D01*
X+5807826Y+223763D01*
X+5801798Y+213268D01*
X+5792576Y+202888D01*
X+5782081Y+195200D01*
X+5771586Y+190282D01*
X+5761091Y+187476D01*
X+5750596Y+186503D01*
X+5750000Y+186500D01*
X+5750000Y+313500D02*
X+5750000Y+186500D01*
X+5686500Y+250000D02*
X+5813500Y+250000D01*
X+3705099Y-1955099D02*
X+3794901Y-2044901D01*
X+3705099Y-2044901D02*
X+3794901Y-1955099D01*
X+5705099Y-1955099D02*
X+5794901Y-2044901D01*
X+5705099Y-2044901D02*
X+5794901Y-1955099D01*
X-11250000Y-6500000D02*
X+6000000Y-6500000D01*
X+6000000Y+500000D01*
X-11250000Y+500000D01*
X-11250000Y-6500000D01*
D21*
X-11260160Y-8008760D02*
X-8616020Y-8008760D01*
X-8616020Y-6764160D01*
X-11260160Y-6764160D01*
X-11260160Y-8008760D01*
D22*
X-10792798Y-6764160D02*
X-10792798Y-8008760D01*
X-9979998Y-6764160D02*
X-9979998Y-8008760D01*
X-9146878Y-6764160D02*
X-9146878Y-8008760D01*
X-11260160Y-7037210D02*
X-8616020Y-7037210D01*
X-11260160Y-7278510D02*
X-8616020Y-7278510D01*
X-11260160Y-7519810D02*
X-8616020Y-7519810D01*
X-11260160Y-7761110D02*
X-8616020Y-7761110D01*
D21*
X-11203010Y-6927990D02*
X-11187770Y-6943230D01*
X-11126810Y-6943230D01*
X-11111570Y-6927990D01*
X-11111570Y-6912750D01*
X-11126810Y-6897510D01*
X-11187770Y-6897510D01*
X-11203010Y-6882270D01*
X-11203010Y-6867030D01*
X-11187770Y-6851790D01*
X-11126810Y-6851790D01*
X-11111570Y-6867030D01*
X-10989650Y-6851790D02*
X-11081090Y-6943230D01*
X-11081090Y-6851790D02*
X-11035370Y-6897510D01*
X-10959170Y-6943230D02*
X-10959170Y-6851790D01*
X-10913450Y-6897510D01*
X-10867730Y-6851790D01*
X-10867730Y-6943230D01*
X-10735650Y-6927990D02*
X-10720410Y-6943230D01*
X-10659450Y-6943230D01*
X-10644210Y-6927990D01*
X-10644210Y-6912750D01*
X-10659450Y-6897510D01*
X-10720410Y-6897510D01*
X-10735650Y-6882270D01*
X-10735650Y-6867030D01*
X-10720410Y-6851790D01*
X-10659450Y-6851790D01*
X-10644210Y-6867030D01*
X-10598490Y-6851790D02*
X-10537530Y-6851790D01*
X-10568010Y-6851790D02*
X-10568010Y-6943230D01*
X-10598490Y-6943230D02*
X-10537530Y-6943230D01*
X-10491810Y-6851790D02*
X-10400370Y-6851790D01*
X-10491810Y-6943230D01*
X-10400370Y-6943230D01*
X-10278450Y-6943230D02*
X-10369890Y-6943230D01*
X-10369890Y-6851790D01*
X-10278450Y-6851790D01*
X-10369890Y-6897510D02*
X-10308930Y-6897510D01*
X-9922850Y-6943230D02*
X-9922850Y-6851790D01*
X-9846650Y-6851790D01*
X-9831410Y-6867030D01*
X-9831410Y-6882270D01*
X-9846650Y-6897510D01*
X-9922850Y-6897510D01*
X-9800930Y-6851790D02*
X-9800930Y-6943230D01*
X-9709490Y-6943230D01*
X-9679010Y-6943230D02*
X-9679010Y-6882270D01*
X-9648530Y-6851790D01*
X-9618050Y-6851790D01*
X-9587570Y-6882270D01*
X-9587570Y-6943230D01*
X-9679010Y-6912750D02*
X-9587570Y-6912750D01*
X-9557090Y-6851790D02*
X-9465650Y-6851790D01*
X-9511370Y-6851790D02*
X-9511370Y-6943230D01*
X-9343730Y-6943230D02*
X-9435170Y-6943230D01*
X-9435170Y-6851790D01*
X-9343730Y-6851790D01*
X-9435170Y-6897510D02*
X-9374210Y-6897510D01*
X-9313250Y-6943230D02*
X-9313250Y-6851790D01*
X-9252290Y-6851790D01*
X-9221810Y-6882270D01*
X-9221810Y-6912750D01*
X-9252290Y-6943230D01*
X-9313250Y-6943230D01*
X-9089730Y-6882270D02*
X-9059250Y-6851790D01*
X-9028770Y-6851790D01*
X-8998290Y-6882270D01*
X-8998290Y-6912750D01*
X-9028770Y-6943230D01*
X-9059250Y-6943230D01*
X-9089730Y-6912750D01*
X-9089730Y-6882270D01*
X-9028770Y-6912750D02*
X-8998290Y-6943230D01*
X-8967810Y-6851790D02*
X-8876370Y-6851790D01*
X-8922090Y-6851790D02*
X-8922090Y-6943230D01*
X-8754450Y-6851790D02*
X-8845890Y-6943230D01*
X-8845890Y-6851790D02*
X-8800170Y-6897510D01*
D16*
X-11013780Y-7088010D02*
X-11013780Y-7215010D01*
X-11077280Y-7151510D02*
X-10950280Y-7151510D01*
D21*
X-10691200Y-7138810D02*
X-10665800Y-7113410D01*
X-10665800Y-7189610D01*
X-10576900Y-7176910D02*
X-10564200Y-7176910D01*
X-10564200Y-7189610D01*
X-10576900Y-7189610D01*
X-10576900Y-7176910D01*
X-10513400Y-7176910D02*
X-10513400Y-7126110D01*
X-10500700Y-7113410D01*
X-10449900Y-7113410D01*
X-10437200Y-7126110D01*
X-10437200Y-7176910D01*
X-10449900Y-7189610D01*
X-10500700Y-7189610D01*
X-10513400Y-7176910D01*
X-10513400Y-7189610D02*
X-10437200Y-7113410D01*
X-10386400Y-7138810D02*
X-10361000Y-7113410D01*
X-10361000Y-7189610D01*
X-10234000Y-7126110D02*
X-10246700Y-7113410D01*
X-10284800Y-7113410D01*
X-10297500Y-7126110D01*
X-10297500Y-7176910D01*
X-10284800Y-7189610D01*
X-10246700Y-7189610D01*
X-10234000Y-7176910D01*
X-10234000Y-7164210D01*
X-10246700Y-7151510D01*
X-10297500Y-7151510D01*
X-10208600Y-7189610D02*
X-10208600Y-7138810D01*
X-10208600Y-7151510D02*
X-10195900Y-7138810D01*
X-10170500Y-7164210D01*
X-10145100Y-7138810D01*
X-10132400Y-7151510D01*
X-10132400Y-7189610D01*
X-10107000Y-7189610D02*
X-10107000Y-7138810D01*
X-10107000Y-7151510D02*
X-10094300Y-7138810D01*
X-10068900Y-7164210D01*
X-10043500Y-7138810D01*
X-10030800Y-7151510D01*
X-10030800Y-7189610D01*
X-9814900Y-7113410D02*
X-9891100Y-7189610D01*
X-9891100Y-7113410D02*
X-9853000Y-7151510D01*
X-9713300Y-7189610D02*
X-9789500Y-7189610D01*
X-9789500Y-7113410D01*
X-9713300Y-7113410D01*
X-9789500Y-7151510D02*
X-9738700Y-7151510D01*
X-9687900Y-7176910D02*
X-9675200Y-7189610D01*
X-9624400Y-7189610D01*
X-9611700Y-7176910D01*
X-9611700Y-7164210D01*
X-9624400Y-7151510D01*
X-9675200Y-7151510D01*
X-9687900Y-7138810D01*
X-9687900Y-7126110D01*
X-9675200Y-7113410D01*
X-9624400Y-7113410D01*
X-9611700Y-7126110D01*
X-9032580Y-7126110D02*
X-9019880Y-7113410D01*
X-8981780Y-7113410D01*
X-8969080Y-7126110D01*
X-8969080Y-7138810D01*
X-8981780Y-7151510D01*
X-9019880Y-7151510D01*
X-9032580Y-7164210D01*
X-9032580Y-7189610D01*
X-8969080Y-7189610D01*
X-8918280Y-7151510D02*
X-8930980Y-7138810D01*
X-8930980Y-7126110D01*
X-8918280Y-7113410D01*
X-8880180Y-7113410D01*
X-8867480Y-7126110D01*
X-8867480Y-7138810D01*
X-8880180Y-7151510D01*
X-8918280Y-7151510D01*
X-8930980Y-7164210D01*
X-8930980Y-7176910D01*
X-8918280Y-7189610D01*
X-8880180Y-7189610D01*
X-8867480Y-7176910D01*
X-8867480Y-7164210D01*
X-8880180Y-7151510D01*
D16*
X-11058681Y-7347909D02*
X-10968879Y-7437711D01*
X-11058681Y-7437711D02*
X-10968879Y-7347909D01*
D21*
X-10691200Y-7380110D02*
X-10665800Y-7354710D01*
X-10665800Y-7430910D01*
X-10615000Y-7430910D02*
X-10615000Y-7380110D01*
X-10615000Y-7392810D02*
X-10602300Y-7380110D01*
X-10576900Y-7405510D01*
X-10551500Y-7380110D01*
X-10538800Y-7392810D01*
X-10538800Y-7430910D01*
X-10513400Y-7430910D02*
X-10513400Y-7380110D01*
X-10513400Y-7392810D02*
X-10500700Y-7380110D01*
X-10475300Y-7405510D01*
X-10449900Y-7380110D01*
X-10437200Y-7392810D01*
X-10437200Y-7430910D01*
X-9814900Y-7354710D02*
X-9891100Y-7430910D01*
X-9891100Y-7354710D02*
X-9853000Y-7392810D01*
X-9713300Y-7430910D02*
X-9789500Y-7430910D01*
X-9789500Y-7354710D01*
X-9713300Y-7354710D01*
X-9789500Y-7392810D02*
X-9738700Y-7392810D01*
X-9687900Y-7418210D02*
X-9675200Y-7430910D01*
X-9624400Y-7430910D01*
X-9611700Y-7418210D01*
X-9611700Y-7405510D01*
X-9624400Y-7392810D01*
X-9675200Y-7392810D01*
X-9687900Y-7380110D01*
X-9687900Y-7367410D01*
X-9675200Y-7354710D01*
X-9624400Y-7354710D01*
X-9611700Y-7367410D01*
X-9032580Y-7367410D02*
X-9019880Y-7354710D01*
X-8981780Y-7354710D01*
X-8969080Y-7367410D01*
X-8969080Y-7380110D01*
X-8981780Y-7392810D01*
X-8969080Y-7405510D01*
X-8969080Y-7418210D01*
X-8981780Y-7430910D01*
X-9019880Y-7430910D01*
X-9032580Y-7418210D01*
X-9007180Y-7392810D02*
X-8981780Y-7392810D01*
X-8867480Y-7380110D02*
X-8880180Y-7392810D01*
X-8918280Y-7392810D01*
X-8930980Y-7380110D01*
X-8930980Y-7367410D01*
X-8918280Y-7354710D01*
X-8880180Y-7354710D01*
X-8867480Y-7367410D01*
X-8867480Y-7418210D01*
X-8880180Y-7430910D01*
X-8918280Y-7430910D01*
D16*
X-11013780Y-7570610D02*
X-11013780Y-7697610D01*
X-11077280Y-7634110D02*
X-10950280Y-7634110D01*
X-11058681Y-7589209D02*
X-10968879Y-7679011D01*
X-11058681Y-7679011D02*
X-10968879Y-7589209D01*
D21*
X-10703900Y-7608710D02*
X-10691200Y-7596010D01*
X-10653100Y-7596010D01*
X-10640400Y-7608710D01*
X-10640400Y-7621410D01*
X-10653100Y-7634110D01*
X-10691200Y-7634110D01*
X-10703900Y-7646810D01*
X-10703900Y-7672210D01*
X-10640400Y-7672210D01*
X-10576900Y-7659510D02*
X-10564200Y-7659510D01*
X-10564200Y-7672210D01*
X-10576900Y-7672210D01*
X-10576900Y-7659510D01*
X-10437200Y-7596010D02*
X-10500700Y-7596010D01*
X-10500700Y-7621410D01*
X-10449900Y-7621410D01*
X-10437200Y-7634110D01*
X-10437200Y-7659510D01*
X-10449900Y-7672210D01*
X-10488000Y-7672210D01*
X-10500700Y-7659510D01*
X-10411800Y-7672210D02*
X-10411800Y-7621410D01*
X-10411800Y-7634110D02*
X-10399100Y-7621410D01*
X-10373700Y-7646810D01*
X-10348300Y-7621410D01*
X-10335600Y-7634110D01*
X-10335600Y-7672210D01*
X-10310200Y-7672210D02*
X-10310200Y-7621410D01*
X-10310200Y-7634110D02*
X-10297500Y-7621410D01*
X-10272100Y-7646810D01*
X-10246700Y-7621410D01*
X-10234000Y-7634110D01*
X-10234000Y-7672210D01*
X-9814900Y-7596010D02*
X-9891100Y-7672210D01*
X-9891100Y-7596010D02*
X-9853000Y-7634110D01*
X-9713300Y-7672210D02*
X-9789500Y-7672210D01*
X-9789500Y-7596010D01*
X-9713300Y-7596010D01*
X-9789500Y-7634110D02*
X-9738700Y-7634110D01*
X-9687900Y-7659510D02*
X-9675200Y-7672210D01*
X-9624400Y-7672210D01*
X-9611700Y-7659510D01*
X-9611700Y-7646810D01*
X-9624400Y-7634110D01*
X-9675200Y-7634110D01*
X-9687900Y-7621410D01*
X-9687900Y-7608710D01*
X-9675200Y-7596010D01*
X-9624400Y-7596010D01*
X-9611700Y-7608710D01*
X-8969080Y-7608710D02*
X-8981780Y-7596010D01*
X-9019880Y-7596010D01*
X-9032580Y-7608710D01*
X-9032580Y-7659510D01*
X-9019880Y-7672210D01*
X-8981780Y-7672210D01*
X-8969080Y-7659510D01*
X-8969080Y-7646810D01*
X-8981780Y-7634110D01*
X-9032580Y-7634110D01*
D16*
X-10950280Y-7875410D02*
X-10950497Y-7870163D01*
X-10952262Y-7859668D01*
X-10955954Y-7849173D01*
X-10961982Y-7838678D01*
X-10971204Y-7828298D01*
X-10981699Y-7820610D01*
X-10992194Y-7815692D01*
X-11002689Y-7812886D01*
X-11013184Y-7811913D01*
X-11013780Y-7811910D01*
X-11077280Y-7875410D02*
X-11077063Y-7870163D01*
X-11075298Y-7859668D01*
X-11071606Y-7849173D01*
X-11065578Y-7838678D01*
X-11056356Y-7828298D01*
X-11045861Y-7820610D01*
X-11035366Y-7815692D01*
X-11024871Y-7812886D01*
X-11014376Y-7811913D01*
X-11013780Y-7811910D01*
X-11077280Y-7875410D02*
X-11077063Y-7880657D01*
X-11075298Y-7891152D01*
X-11071606Y-7901647D01*
X-11065578Y-7912142D01*
X-11056356Y-7922522D01*
X-11045861Y-7930210D01*
X-11035366Y-7935128D01*
X-11024871Y-7937934D01*
X-11014376Y-7938907D01*
X-11013780Y-7938910D01*
X-10950280Y-7875410D02*
X-10950497Y-7880657D01*
X-10952262Y-7891152D01*
X-10955954Y-7901647D01*
X-10961982Y-7912142D01*
X-10971204Y-7922522D01*
X-10981699Y-7930210D01*
X-10992194Y-7935128D01*
X-11002689Y-7937934D01*
X-11013184Y-7938907D01*
X-11013780Y-7938910D01*
X-11013780Y-7811910D02*
X-11013780Y-7938910D01*
X-11077280Y-7875410D02*
X-10950280Y-7875410D01*
D21*
X-10703900Y-7850010D02*
X-10691200Y-7837310D01*
X-10653100Y-7837310D01*
X-10640400Y-7850010D01*
X-10640400Y-7862710D01*
X-10653100Y-7875410D01*
X-10640400Y-7888110D01*
X-10640400Y-7900810D01*
X-10653100Y-7913510D01*
X-10691200Y-7913510D01*
X-10703900Y-7900810D01*
X-10678500Y-7875410D02*
X-10653100Y-7875410D01*
X-10576900Y-7900810D02*
X-10564200Y-7900810D01*
X-10564200Y-7913510D01*
X-10576900Y-7913510D01*
X-10576900Y-7900810D01*
X-10437200Y-7837310D02*
X-10500700Y-7837310D01*
X-10500700Y-7862710D01*
X-10449900Y-7862710D01*
X-10437200Y-7875410D01*
X-10437200Y-7900810D01*
X-10449900Y-7913510D01*
X-10488000Y-7913510D01*
X-10500700Y-7900810D01*
X-10411800Y-7913510D02*
X-10411800Y-7862710D01*
X-10411800Y-7875410D02*
X-10399100Y-7862710D01*
X-10373700Y-7888110D01*
X-10348300Y-7862710D01*
X-10335600Y-7875410D01*
X-10335600Y-7913510D01*
X-10310200Y-7913510D02*
X-10310200Y-7862710D01*
X-10310200Y-7875410D02*
X-10297500Y-7862710D01*
X-10272100Y-7888110D01*
X-10246700Y-7862710D01*
X-10234000Y-7875410D01*
X-10234000Y-7913510D01*
X-9814900Y-7837310D02*
X-9891100Y-7913510D01*
X-9891100Y-7837310D02*
X-9853000Y-7875410D01*
X-9713300Y-7913510D02*
X-9789500Y-7913510D01*
X-9789500Y-7837310D01*
X-9713300Y-7837310D01*
X-9789500Y-7875410D02*
X-9738700Y-7875410D01*
X-9687900Y-7900810D02*
X-9675200Y-7913510D01*
X-9624400Y-7913510D01*
X-9611700Y-7900810D01*
X-9611700Y-7888110D01*
X-9624400Y-7875410D01*
X-9675200Y-7875410D01*
X-9687900Y-7862710D01*
X-9687900Y-7850010D01*
X-9675200Y-7837310D01*
X-9624400Y-7837310D01*
X-9611700Y-7850010D01*
X-8969080Y-7888110D02*
X-9045280Y-7888110D01*
X-8994480Y-7837310D01*
X-8994480Y-7913510D01*
M02*
