M48
METRIC,TZ
T01C1.0160
T02C1.0000
T03C2.5000
T04C3.5000
%
T01
X-27500Y-17500
X-25000Y-17500
X-22500Y-17500
X-20000Y-17500
X-17500Y-17500
X-15000Y-17500
X-12500Y-17500
X-10000Y-17500
X-7500Y-17500
X-5000Y-17500
X-2500Y-17500
X+0Y-17500
X+2500Y-17500
X+5000Y-17500
X+5000Y-37500
X+2500Y-37500
X+0Y-37500
X-2500Y-37500
X-5000Y-37500
X-7500Y-37500
X-10000Y-37500
X-12500Y-37500
X-15000Y-37500
X-17500Y-37500
X-20000Y-37500
X-22500Y-37500
X-25000Y-37500
X-27500Y-37500
T02
X-22500Y-2500
X-25000Y-2500
X-27500Y-2500
X-30000Y-2500
X+5000Y-5000
X+2500Y-5000
X+0Y-5000
X-2500Y-5000
X-95000Y-40000
X-92500Y-40000
X-89920Y-40000
X-87500Y-40000
X-95000Y-29880
X-92460Y-29880
X-90000Y-30000
X-87500Y-30000
X-77500Y-5000
X-74960Y-5000
X-72420Y-5000
X-69880Y-5000
X-67340Y-5000
X-64800Y-5000
X-62500Y-5000
X-80000Y-5000
X-5000Y-55000
X-7500Y-55000
X-10000Y-55000
X-12500Y-55000
X-15000Y-55000
X+25000Y-32500
X+25000Y-30000
X+25000Y-27500
X+25000Y-25000
X+45000Y-32500
X+50000Y-32500
X+42500Y-10000
X+52500Y-10000
X+37500Y-20000
X+57500Y-20000
T03
X+45000Y-25000
X+50000Y-25000
X+45000Y-15000
X+45000Y-20000
X+50000Y-15000
X+50000Y-20000
T04
X-110000Y-62500
X+57500Y-62500
X-110000Y+2500
X+57500Y+2500
M30
