G04 PROTEUS RS274X GERBER FILE*
%FSLAX45Y45*%
%MOMM*%
G01*
%ADD16C,0.203200*%
D16*
X-3250000Y-500000D02*
X-2014336Y-500000D01*
X-2014336Y+0D01*
X-3250000Y+0D01*
X-3250000Y-500000D01*
X-500000Y-750000D02*
X+750000Y-750000D01*
X+750000Y-250000D01*
X-500000Y-250000D01*
X-500000Y-750000D01*
X+2000000Y-203200D02*
X+2000000Y-101600D01*
X+2050800Y-50800D01*
X+2101600Y-50800D01*
X+2152400Y-101600D01*
X+2152400Y-203200D01*
X+2000000Y-152400D02*
X+2152400Y-152400D01*
X+2203200Y-203200D02*
X+2203200Y-50800D01*
X+2304800Y-50800D01*
X+2355600Y-101600D01*
X+2355600Y-152400D01*
X+2304800Y-203200D01*
X+2203200Y-203200D01*
X+2762000Y-50800D02*
X+2635000Y-50800D01*
X+2635000Y-101600D01*
X+2736600Y-101600D01*
X+2762000Y-127000D01*
X+2762000Y-177800D01*
X+2736600Y-203200D01*
X+2660400Y-203200D01*
X+2635000Y-177800D01*
X+2965200Y-101600D02*
X+2939800Y-127000D01*
X+2863600Y-127000D01*
X+2838200Y-101600D01*
X+2838200Y-76200D01*
X+2863600Y-50800D01*
X+2939800Y-50800D01*
X+2965200Y-76200D01*
X+2965200Y-177800D01*
X+2939800Y-203200D01*
X+2863600Y-203200D01*
X+3041400Y-76200D02*
X+3066800Y-50800D01*
X+3143000Y-50800D01*
X+3168400Y-76200D01*
X+3168400Y-101600D01*
X+3143000Y-127000D01*
X+3168400Y-152400D01*
X+3168400Y-177800D01*
X+3143000Y-203200D01*
X+3066800Y-203200D01*
X+3041400Y-177800D01*
X+3092200Y-127000D02*
X+3143000Y-127000D01*
X+3244600Y-76200D02*
X+3270000Y-50800D01*
X+3346200Y-50800D01*
X+3371600Y-76200D01*
X+3371600Y-101600D01*
X+3346200Y-127000D01*
X+3371600Y-152400D01*
X+3371600Y-177800D01*
X+3346200Y-203200D01*
X+3270000Y-203200D01*
X+3244600Y-177800D01*
X+3295400Y-127000D02*
X+3346200Y-127000D01*
X-9750000Y-4250000D02*
X-8500000Y-4250000D01*
X-8500000Y-2750000D01*
X-9750000Y-2750000D01*
X-9750000Y-4250000D01*
X-7877000Y-690500D02*
X-6353000Y-690500D01*
X-6353000Y-309500D01*
X-7877000Y-309500D01*
X-7877000Y-690500D01*
X-1750000Y-5750000D02*
X-250000Y-5750000D01*
X-250000Y-5250000D01*
X-1750000Y-5250000D01*
X-1750000Y-5750000D01*
X+2250000Y-3500000D02*
X+2750000Y-3500000D01*
X+2750000Y-2250000D01*
X+2250000Y-2250000D01*
X+2250000Y-3500000D01*
X+4250000Y-2750000D02*
X+5250000Y-2750000D01*
X+5250000Y-1250000D01*
X+4250000Y-1250000D01*
X+4250000Y-2750000D01*
X+3296800Y-2500000D02*
X+3449200Y-2500000D01*
X+3449200Y-2563500D01*
X+3423800Y-2576200D01*
X+3398400Y-2576200D01*
X+3373000Y-2563500D01*
X+3347600Y-2576200D01*
X+3322200Y-2576200D01*
X+3296800Y-2563500D01*
X+3296800Y-2500000D01*
X+3373000Y-2500000D02*
X+3373000Y-2563500D01*
X+3449200Y-2639700D02*
X+3296800Y-2639700D01*
X+3398400Y-2703200D02*
X+3322200Y-2703200D01*
X+3296800Y-2715900D01*
X+3296800Y-2766700D01*
X+3322200Y-2779400D01*
X+3296800Y-2779400D02*
X+3398400Y-2779400D01*
X+3347600Y-2804800D02*
X+3347600Y-2881000D01*
X+3373000Y-2881000D01*
X+3398400Y-2868300D01*
X+3398400Y-2817500D01*
X+3373000Y-2804800D01*
X+3322200Y-2804800D01*
X+3296800Y-2817500D01*
X+3296800Y-2868300D01*
X+3449200Y-2919100D02*
X+3322200Y-2919100D01*
X+3296800Y-2931800D01*
X+3296800Y-2969900D01*
X+3322200Y-2982600D01*
X+3398400Y-2906400D02*
X+3398400Y-2969900D01*
X+3373000Y-3008000D02*
X+3398400Y-3020700D01*
X+3398400Y-3071500D01*
X+3373000Y-3084200D01*
X+3322200Y-3084200D01*
X+3296800Y-3071500D01*
X+3296800Y-3020700D01*
X+3322200Y-3008000D01*
X+3373000Y-3008000D01*
X+3373000Y-3109600D02*
X+3398400Y-3122300D01*
X+3398400Y-3173100D01*
X+3373000Y-3185800D01*
X+3322200Y-3185800D01*
X+3296800Y-3173100D01*
X+3296800Y-3122300D01*
X+3322200Y-3109600D01*
X+3373000Y-3109600D01*
X+3449200Y-3223900D02*
X+3322200Y-3223900D01*
X+3296800Y-3236600D01*
X+3296800Y-3274700D01*
X+3322200Y-3287400D01*
X+3398400Y-3211200D02*
X+3398400Y-3274700D01*
X+3296800Y-3389000D02*
X+3373000Y-3389000D01*
X+3398400Y-3376300D01*
X+3398400Y-3325500D01*
X+3373000Y-3312800D01*
X+3449200Y-3312800D02*
X+3296800Y-3312800D01*
X-2173800Y-5453200D02*
X-2250000Y-5453200D01*
X-2250000Y-5300800D01*
X-2173800Y-5300800D01*
X-2250000Y-5377000D02*
X-2199200Y-5377000D01*
X-2072200Y-5427800D02*
X-2084900Y-5453200D01*
X-2123000Y-5453200D01*
X-2148400Y-5402400D01*
X-2148400Y-5351600D01*
X-2123000Y-5300800D01*
X-2084900Y-5300800D01*
X-2072200Y-5326200D01*
X-1996000Y-5402400D02*
X-1970600Y-5402400D01*
X-1970600Y-5453200D01*
X-2021400Y-5453200D01*
X-2046800Y-5402400D01*
X-2046800Y-5351600D01*
X-2021400Y-5300800D01*
X-1983300Y-5300800D01*
X-1970600Y-5326200D01*
X-11250000Y-6500000D02*
X+6000000Y-6500000D01*
X+6000000Y+500000D01*
X-11250000Y+500000D01*
X-11250000Y-6500000D01*
M02*
